# xmcd
#
# Track frame offsets:
#	150
#	20891
#	85948
#	108948
#
# Disc length: 1706 seconds
#
# Revision: 3
# Processed by: cddbd v1.5.2PL0 Copyright (c) Steve Scherf et al.
# Submitted via: Jack! The Knife 20 Magnifico
#
DISCID=2a06a804
DTITLE=Faust'O - L'erba and Exit
DYEAR=1997
DGENRE=Rock
TTITLE0=Chiudi gli occhi (la vita è un sogno)
TTITLE1=Blues
TTITLE2=Ora che ho visto
TTITLE3=La scienza, il progresso, la nuova nobiltà
EXTD=
EXTT0=Rossi, Cristaldi, Ferrari
EXTT1=Rossi, Cristaldi
EXTT2=Fausto Rossi
EXTT3=Rossi, Cristaldi, Ferrari
PLAYORDER=
